<svg width="272" height="65" viewBox="0 0 272 65" fill="none" xmlns="http://www.w3.org/2000/svg">
<path d="M37.1543 36.25C37.1543 37.95 37.1876 40.2333 37.2543 43.1C37.321 45.9667 37.3543 48.2 37.3543 49.8C37.3543 50.9333 37.0376 51.8167 36.4043 52.45C35.771 53.05 34.8876 53.35 33.7543 53.35C32.621 53.35 31.721 53.05 31.0543 52.45C30.3876 51.85 30.0543 51.05 30.0543 50.05V36.55C30.0543 33.2833 29.9543 30.75 29.7543 28.95C29.5543 27.1167 29.3043 26.2 29.0043 26.2C28.7376 26.2 28.3376 26.9 27.8043 28.3C27.271 29.7 26.8043 31.0833 26.4043 32.45C25.8376 34.3167 25.2543 36.4833 24.6543 38.95C24.421 39.85 23.971 40.5167 23.3043 40.95C22.6376 41.3833 21.7543 41.6 20.6543 41.6C18.421 41.6 17.071 40.7833 16.6043 39.15L16.0043 37C15.5376 35.3 15.0543 33.7167 14.5543 32.25C14.1543 31.0833 13.6543 29.7833 13.0543 28.35C12.4543 26.9167 12.071 26.2 11.9043 26.2C11.7043 26.2 11.5543 27.1333 11.4543 29C11.3543 30.8333 11.271 33.2833 11.2043 36.35C11.171 37.55 11.1543 39.15 11.1543 41.15L11.2043 50.15C11.2043 51.05 10.871 51.7833 10.2043 52.35C9.53763 52.8833 8.62096 53.15 7.4543 53.15C6.32096 53.15 5.43763 52.85 4.8043 52.25C4.2043 51.65 3.9043 50.6167 3.9043 49.15L3.9543 42.85C4.02096 40.05 4.0543 37.8333 4.0543 36.2C4.0543 31.6667 4.28763 28.0333 4.7543 25.3C5.22096 22.5333 5.9543 20.5167 6.9543 19.25C7.9543 17.9833 9.27096 17.35 10.9043 17.35C12.871 17.35 14.4876 18.1333 15.7543 19.7C17.0543 21.2667 18.021 23.0333 18.6543 25C19.321 26.9667 19.9543 29.3 20.5543 32C21.1876 29.4 21.871 27.1 22.6043 25.1C23.3376 23.0667 24.3543 21.2667 25.6543 19.7C26.9876 18.1333 28.6043 17.35 30.5043 17.35C32.2376 17.35 33.5876 18.0833 34.5543 19.55C35.521 20.9833 36.1876 23.0667 36.5543 25.8C36.9543 28.5 37.1543 31.9833 37.1543 36.25ZM65.284 45.1C65.284 46.2667 65.384 47.1833 65.584 47.85C65.784 48.5167 66.0007 49.05 66.234 49.45C66.4673 49.85 66.584 50.0833 66.584 50.15C66.584 50.9833 66.2673 51.6833 65.634 52.25C65.034 52.7833 64.2173 53.05 63.184 53.05C62.5507 53.05 61.8507 52.7167 61.084 52.05C60.3507 51.35 59.8673 50.5833 59.634 49.75C58.4673 51.9833 56.284 53.1 53.084 53.1C50.1507 53.1 47.8673 52.0667 46.234 50C44.634 47.9333 43.834 45.3 43.834 42.1V30.3C43.834 29.5333 44.1673 28.9167 44.834 28.45C45.534 27.95 46.384 27.7 47.384 27.7C48.384 27.7 49.234 27.95 49.934 28.45C50.6673 28.9167 51.034 29.5333 51.034 30.3V42C51.034 43.4333 51.284 44.7167 51.784 45.85C52.284 46.9833 53.0507 47.55 54.084 47.55C55.384 47.55 56.334 46.9667 56.934 45.8C57.5673 44.6333 57.884 42.5833 57.884 39.65V30.4C57.884 29.5 58.2007 28.7833 58.834 28.25C59.5007 27.7167 60.3673 27.45 61.434 27.45C62.534 27.45 63.4173 27.7167 64.084 28.25C64.784 28.7833 65.134 29.5 65.134 30.4L65.284 45.1ZM82.0461 53.45C79.7461 53.45 77.6961 52.9167 75.8961 51.85C74.0961 50.75 72.8128 49.3 72.0461 47.5C71.8461 47 71.7461 46.5833 71.7461 46.25C71.7461 45.55 72.1128 44.8833 72.8461 44.25C73.5794 43.6167 74.3794 43.3 75.2461 43.3C75.7461 43.3 76.1461 43.4167 76.4461 43.65C76.7461 43.85 76.9794 44.05 77.1461 44.25C77.3128 44.4167 77.4128 44.5333 77.4461 44.6C78.4128 45.7333 79.2128 46.5333 79.8461 47C80.4794 47.4667 81.2461 47.7 82.1461 47.7C82.9794 47.7 83.6961 47.5333 84.2961 47.2C84.8961 46.8333 85.1961 46.3333 85.1961 45.7C85.1961 45 84.8461 44.45 84.1461 44.05C83.4461 43.65 82.3128 43.2 80.7461 42.7C79.0128 42.1 77.5961 41.5333 76.4961 41C75.4294 40.4667 74.4794 39.6833 73.6461 38.65C72.8461 37.5833 72.4461 36.2333 72.4461 34.6C72.4461 32.9667 72.9128 31.5667 73.8461 30.4C74.7794 29.2 76.0128 28.2833 77.5461 27.65C79.1128 27.0167 80.7961 26.7 82.5961 26.7C84.5294 26.7 86.1961 27.0667 87.5961 27.8C89.0294 28.5 90.1128 29.45 90.8461 30.65C91.5794 31.8167 91.9461 33.0667 91.9461 34.4C91.9461 35.3 91.6961 35.9833 91.1961 36.45C90.6961 36.9167 89.8628 37.15 88.6961 37.15C87.6628 37.15 86.9461 36.9833 86.5461 36.65C86.1794 36.3167 85.9461 35.85 85.8461 35.25C85.7461 34.4167 85.4794 33.75 85.0461 33.25C84.6461 32.75 83.8294 32.5 82.5961 32.5C81.6628 32.5 80.9294 32.6667 80.3961 33C79.8961 33.3333 79.6461 33.8 79.6461 34.4C79.6461 35.1333 79.9961 35.7 80.6961 36.1C81.4294 36.5 82.5961 36.9333 84.1961 37.4C85.8961 37.9333 87.2961 38.4667 88.3961 39C89.4961 39.5 90.4461 40.2667 91.2461 41.3C92.0461 42.3 92.4461 43.6333 92.4461 45.3C92.4461 47.2 91.9128 48.7667 90.8461 50C89.7794 51.2333 88.4461 52.1167 86.8461 52.65C85.2461 53.1833 83.6461 53.45 82.0461 53.45ZM112.241 43.05C113.341 43.05 114.141 43.2667 114.641 43.7C115.141 44.1333 115.391 44.8333 115.391 45.8C115.391 48 114.691 49.7667 113.291 51.1C111.891 52.4333 110.125 53.1 107.991 53.1C105.091 53.1 102.975 51.9333 101.641 49.6C100.308 47.2333 99.6414 43.5 99.6414 38.4C99.6414 36.8667 99.6581 35.75 99.6914 35.05C99.4581 35.0167 99.0747 35 98.5414 35C96.6414 34.9667 95.6914 34.05 95.6914 32.25C95.6914 31.3167 95.9247 30.6167 96.3914 30.15C96.8914 29.6833 97.7581 29.4667 98.9914 29.5L100.091 29.55C100.325 27.4833 100.708 24.95 101.241 21.95C101.375 21.15 101.741 20.55 102.341 20.15C102.975 19.7167 103.775 19.5 104.741 19.5C105.875 19.5 106.758 19.7667 107.391 20.3C108.025 20.8333 108.341 21.4833 108.341 22.25L108.291 22.65L108.041 24.25C107.641 26.9833 107.375 28.85 107.241 29.85C108.375 29.9167 109.241 29.95 109.841 29.95C111.541 29.9833 112.391 30.8667 112.391 32.6C112.391 33.4667 112.158 34.1167 111.691 34.55C111.225 34.9833 110.441 35.2 109.341 35.2H106.841C106.808 35.8667 106.791 36.9333 106.791 38.4C106.791 40.8667 106.841 42.7667 106.941 44.1C107.075 45.4 107.258 46.2833 107.491 46.75C107.725 47.2167 108.025 47.45 108.391 47.45C108.858 47.45 109.158 47.3 109.291 47C109.425 46.7 109.491 46.1667 109.491 45.4C109.491 43.8333 110.408 43.05 112.241 43.05ZM143.608 47.45C144.242 47.55 144.725 47.7833 145.058 48.15C145.425 48.5167 145.608 49.1667 145.608 50.1C145.608 50.9 145.392 51.5833 144.958 52.15C144.558 52.7167 144.008 53 143.308 53C141.875 53 140.775 52.8333 140.008 52.5C139.242 52.1333 138.542 51.4833 137.908 50.55C137.175 51.65 136.175 52.4333 134.908 52.9C133.642 53.3333 132.158 53.55 130.458 53.55C126.692 53.55 123.825 52.4667 121.858 50.3C119.892 48.1333 118.908 45.1167 118.908 41.25C118.908 38.7167 119.425 36.4667 120.458 34.5C121.492 32.5333 122.925 31 124.758 29.9C126.625 28.8 128.758 28.25 131.158 28.25C132.358 28.25 133.475 28.4833 134.508 28.95C135.542 29.4167 136.325 30.0333 136.858 30.8L136.958 30.15C137.025 29.6833 137.292 29.3 137.758 29C138.225 28.6667 138.958 28.5 139.958 28.5C141.025 28.5 141.808 28.7167 142.308 29.15C142.808 29.5833 143.058 30.1333 143.058 30.8C143.058 31.0333 143.042 31.2167 143.008 31.35C142.808 32.4833 142.608 34.3833 142.408 37.05C142.308 38.2833 142.258 39.8667 142.258 41.8V44.3C142.258 45.2667 142.342 46.0167 142.508 46.55C142.675 47.05 143.042 47.35 143.608 47.45ZM135.258 44C135.292 42.6333 135.308 40.5167 135.308 37.65C135.308 36.5167 134.925 35.6 134.158 34.9C133.425 34.1667 132.475 33.8 131.308 33.8C129.808 33.8 128.575 34.5 127.608 35.9C126.642 37.2667 126.158 39.0333 126.158 41.2C126.158 43.2667 126.592 44.9167 127.458 46.15C128.325 47.3833 129.492 48 130.958 48C132.325 48 133.375 47.6667 134.108 47C134.842 46.3 135.225 45.3 135.258 44ZM161.521 16C164.121 16 166.121 16.7167 167.521 18.15C168.954 19.55 169.671 21.4 169.671 23.7C169.671 25.0667 169.388 26.0667 168.821 26.7C168.254 27.3 167.354 27.6 166.121 27.6C163.888 27.6 162.688 26.5833 162.521 24.55C162.488 24.35 162.471 23.9833 162.471 23.45C162.471 22.9167 162.371 22.5 162.171 22.2C162.004 21.9 161.704 21.75 161.271 21.75C160.904 21.75 160.638 21.8833 160.471 22.15C160.304 22.4167 160.188 22.8833 160.121 23.55C160.054 24.2167 160.004 25.3 159.971 26.8C159.938 27.8 159.921 29.4 159.921 31.6H162.621C164.221 31.6 165.021 32.5 165.021 34.3C165.021 36.0667 164.188 36.95 162.521 36.95C161.421 36.95 160.571 36.9667 159.971 37C160.004 40.6333 160.104 44.9833 160.271 50.05C160.304 50.95 159.988 51.6667 159.321 52.2C158.654 52.7333 157.788 53 156.721 53C155.688 53 154.838 52.75 154.171 52.25C153.504 51.7167 153.154 51.0167 153.121 50.15C152.988 46.1167 152.904 41.7833 152.871 37.15H151.721C150.588 37.15 149.788 36.9167 149.321 36.45C148.854 35.9833 148.621 35.2833 148.621 34.35C148.621 33.4833 148.821 32.8167 149.221 32.35C149.621 31.85 150.354 31.6 151.421 31.6H152.771L152.721 26.4C152.721 23.0333 153.488 20.4667 155.021 18.7C156.554 16.9 158.721 16 161.521 16ZM195.708 47.45C196.341 47.55 196.824 47.7833 197.158 48.15C197.524 48.5167 197.708 49.1667 197.708 50.1C197.708 50.9 197.491 51.5833 197.058 52.15C196.658 52.7167 196.108 53 195.408 53C193.974 53 192.874 52.8333 192.108 52.5C191.341 52.1333 190.641 51.4833 190.008 50.55C189.274 51.65 188.274 52.4333 187.008 52.9C185.741 53.3333 184.258 53.55 182.558 53.55C178.791 53.55 175.924 52.4667 173.958 50.3C171.991 48.1333 171.008 45.1167 171.008 41.25C171.008 38.7167 171.524 36.4667 172.558 34.5C173.591 32.5333 175.024 31 176.858 29.9C178.724 28.8 180.858 28.25 183.258 28.25C184.458 28.25 185.574 28.4833 186.608 28.95C187.641 29.4167 188.424 30.0333 188.958 30.8L189.058 30.15C189.124 29.6833 189.391 29.3 189.858 29C190.324 28.6667 191.058 28.5 192.058 28.5C193.124 28.5 193.908 28.7167 194.408 29.15C194.908 29.5833 195.158 30.1333 195.158 30.8C195.158 31.0333 195.141 31.2167 195.108 31.35C194.908 32.4833 194.708 34.3833 194.508 37.05C194.408 38.2833 194.358 39.8667 194.358 41.8V44.3C194.358 45.2667 194.441 46.0167 194.608 46.55C194.774 47.05 195.141 47.35 195.708 47.45ZM187.358 44C187.391 42.6333 187.408 40.5167 187.408 37.65C187.408 36.5167 187.024 35.6 186.258 34.9C185.524 34.1667 184.574 33.8 183.408 33.8C181.908 33.8 180.674 34.5 179.708 35.9C178.741 37.2667 178.258 39.0333 178.258 41.2C178.258 43.2667 178.691 44.9167 179.558 46.15C180.424 47.3833 181.591 48 183.058 48C184.424 48 185.474 47.6667 186.208 47C186.941 46.3 187.324 45.3 187.358 44ZM254.738 36.8C254.738 37.7667 254.438 38.55 253.838 39.15C253.272 39.75 252.455 40.0667 251.388 40.1C251.022 44.2 249.672 47.3833 247.338 49.65C245.038 51.9167 241.872 53.05 237.838 53.05C234.505 53.05 231.488 52.3 228.788 50.8C226.122 49.2667 224.022 47.1667 222.488 44.5C220.988 41.8333 220.238 38.8667 220.238 35.6C220.238 32.3667 220.955 29.45 222.388 26.85C223.855 24.2167 225.838 22.15 228.338 20.65C230.838 19.15 233.588 18.4 236.588 18.4C239.055 18.4 241.105 18.8833 242.738 19.85C244.405 20.7833 245.588 21.85 246.288 23.05V21.9C246.288 21.2333 246.555 20.6667 247.088 20.2C247.655 19.7333 248.455 19.5 249.488 19.5C250.555 19.5 251.355 19.75 251.888 20.25C252.455 20.7167 252.755 21.3167 252.788 22.05C252.888 24.8167 252.655 26.75 252.088 27.85C251.788 28.3833 251.338 28.7833 250.738 29.05C250.172 29.3167 249.522 29.45 248.788 29.45C248.122 29.45 247.538 29.3333 247.038 29.1C246.538 28.8333 245.888 28.35 245.088 27.65C244.188 26.85 243.255 26.2 242.288 25.7C241.322 25.2 240.005 24.95 238.338 24.95C236.272 24.95 234.405 25.4 232.738 26.3C231.105 27.1667 229.822 28.4167 228.888 30.05C227.955 31.65 227.488 33.5 227.488 35.6C227.488 37.7 227.955 39.5833 228.888 41.25C229.822 42.9167 231.072 44.2167 232.638 45.15C234.205 46.0833 235.872 46.55 237.638 46.55C239.505 46.55 241.022 46.0167 242.188 44.95C243.355 43.85 244.088 42.2167 244.388 40.05L239.338 39.95C238.172 39.9167 237.305 39.6167 236.738 39.05C236.205 38.4833 235.938 37.7333 235.938 36.8C235.938 35.7667 236.255 34.9333 236.888 34.3C237.522 33.6667 238.388 33.3667 239.488 33.4L250.888 33.65C252.155 33.6833 253.105 33.9667 253.738 34.5C254.405 35.0333 254.738 35.8 254.738 36.8ZM263.815 53C262.648 53 261.665 52.6167 260.865 51.85C260.098 51.05 259.715 50.05 259.715 48.85C259.715 47.6167 260.115 46.5833 260.915 45.75C261.748 44.9167 262.765 44.5 263.965 44.5C265.065 44.5 266.032 44.9333 266.865 45.8C267.698 46.6667 268.115 47.6833 268.115 48.85C268.115 49.9833 267.682 50.9667 266.815 51.8C265.982 52.6 264.982 53 263.815 53Z" fill="#F9F9F9"/>
</svg>
